@startuml

class EveMetadata {
    id : String
    name : String
    pv : String
    transport_type : String
    section : Section
}

class EveData {
}
note bottom: See separate diagram\nfor class hierarchy

enum Section {
    STANDARD
    SNAPSHOT
    MONITOR
    TIMESTAMP
}
note top: These sections may have different\nnames in the final data model\nand need not reflect the eveH5 structure.

class EveMeasureMetadata {
    unit : String
}

class EveMonitorMetadata{
}

class EveMotorMetadata {
}

class EveDetectorMetadata {
    normalise_id : String
}

class EveAverageDetectorMetadata {
    n_averages : int
    low_limit : float
    max_attempts : int
    max_deviation : float
}

class EveIntervalDetectorMetadata {
    trigger_interval : float
}

EveMetadata *-- EveData
EveMetadata <|-- EveMeasureMetadata
EveMetadata <|-- EveMonitorMetadata
EveMeasureMetadata <|-- EveDetectorMetadata
EveMeasureMetadata <|-- EveMotorMetadata
EveDetectorMetadata <|-- EveAverageDetectorMetadata
EveDetectorMetadata <|-- EveIntervalDetectorMetadata


@enduml
