@startuml

class Metadata {
    measurement : Measurement
    file : File
    devices : Device{}
}

class Dataset
note bottom: See separate diagram\nfor class hierarchy

class Measurement {
    start : datetime
    end : datetime
    location : string
    preferred_axis : string
    preferred_channel : string
    preferred_normalisation_channel : string
}

class File {
    filename : string
    h5_version : string
    eve_version : string
    xml_version: string
}

class Device {
    id : string
    name : string
}

class Motor extends Device {
}

class Detector extends Device {
    normalise_id : string
}

class AverageDetector extends Detector {
    n_averages : int
    low_limit : float
    max_attempts : int
    max_deviation : float
}

class IntervalDetector extends Detector {
    trigger_interval : float
}

class ArrayDetector extends Detector {
}

class AreaDetector extends Detector {
}

class Monitor extends Device {
}

Metadata -* Dataset
Metadata *-- Measurement
Metadata "1" *-- "n" Device
Metadata *-- File

@enduml